 http://www.imdb.com/title/tt0110167/

A police officer promises to share his lottery ticket with a waitress in lieu of a tip.


Cast

Nicolas Cage as Charlie Lang
Bridget Fonda as Yvonne Biasi
Rosie Perez as Muriel Lang
Wendell Pierce as Bo Williams
Isaac Hayes as Angel Dupree
Stanley Tucci as Eddie Biasi
Victor Rojas as Jesu
Seymour Cassel as Jack Gross
J.E. Freeman as Sal Bontempo
Red Buttons as Walter Zakuto
Richard Jenkins as C. Vernon Hale


Its the Sinners file I found it on web. Since the current Sinners upload has zero seeders, I decided to upload this one by myself. I can unfortunately only upload for 4 days, as I be moving to a new place.

So, please keep on seeding for others to have this file.


General

Format                           : Matroska
File size                        : 4.37 GiB
Duration                         : 1h 41mn
Overall bit rate                 : 6 165 Kbps
Encoded date                     : UTC 2009-05-06 04:49:23
Writing application              : mkvmerge v2.5.3 ('Boogie') built on Mar  7 2009 15:00:41
Writing library                  : libebml v0.7.7 + libmatroska v0.8.1

Video
ID                               : 1
Format                           : AVC
Format/Info                      : Advanced Video Codec
Format profile                   : High@L3.1
Format settings, CABAC           : Yes
Format settings, ReFrames        : 5 frames
Codec ID                         : V_MPEG4/ISO/AVC
Duration                         : 1h 41mn
Bit rate                         : 5 523 Kbps
Width                            : 1 280 pixels
Height                           : 688 pixels
Display aspect ratio             : 1.860
Frame rate                       : 23.976 fps
Color space                      : YUV
Chroma subsampling               : 4:2:0
Bit depth                        : 8 bits
Scan type                        : Progressive
Bits/(Pixel*Frame)               : 0.262
Stream size                      : 3.83 GiB (88%)
Writing library                  : x264 core 67 r1145 d2e1e1c
Encoding settings                : cabac=1 / ref=5 / deblock=1:0:0 / 
Language                         : English

Audio
ID                               : 2
Format                           : AC-3
Format/Info                      : Audio Coding 3
Mode extension                   : CM (complete main)
Codec ID                         : A_AC3
Duration                         : 1h 41mn
Bit rate mode                    : Constant
Bit rate                         : 640 Kbps
Channel(s)                       : 6 channels
Channel positions                : Front: L C R, Side: L R, LFE
Sampling rate                    : 48.0 KHz
Bit depth                        : 16 bits
Compression mode                 : Lossy
Stream size                      : 465 MiB (10%)

Text
ID                               : 3
Format                           : UTF-8
Codec ID                         : S_TEXT/UTF8
Codec ID/Info                    : UTF-8 Plain Text
Language                         : English


